<?xml version="1.0" encoding="UTF-8"?> <svg xmlns="http://www.w3.org/2000/svg" xmlns:xlink="http://www.w3.org/1999/xlink" id="Layer_1" data-name="Layer 1" viewBox="0 0 372.57 187.56"><defs><style>.cls-1{fill:none;}.cls-2{fill:#c31f4b;}.cls-3{fill:#231f20;}.cls-4{clip-path:url(#clip-path);}.cls-5{fill:#fff;}</style><clipPath id="clip-path" transform="translate(-3.62 0)"><rect class="cls-1" width="377.34" height="225.32"></rect></clipPath></defs><polygon class="cls-2" points="277.36 5.57 305.65 11.13 334.56 28.3 348.87 44.74 357.55 54.08 365.5 75.53 368.38 102.17 362.95 123.06 354.82 141.3 334.56 161.4 316.71 175.68 283.69 181.71 261.77 178.92 240.67 171.22 221.09 158.62 202.44 141.3 194.36 118.8 191.47 95.98 191.47 75.53 200.13 52.53 216.79 33.99 235.04 20.9 247.07 12.45 259.59 8.23 277.36 5.57"></polygon><polygon class="cls-3" points="10.51 154.5 10.51 154.5 10.51 154.5 10.51 154.5"></polygon><polygon class="cls-3" points="10.51 154.5 10.51 154.5 10.51 154.5 10.51 154.5"></polygon><g class="cls-4"><path class="cls-5" d="M85.82,50.11l.31,1.16c-.14-.82-.27-1.64-.42-2.45l-.11-.61-.06-.38a1,1,0,0,0-.07-.26l0-.19L85,46.19,84.64,45c-.13-.4-.28-.79-.42-1.18-.29-.79-.56-1.58-.88-2.35s-.46-1.42-.7-2.13l-.77-2.11c-.76-1.63-1.42-3-2.13-4.27l-.53-1-.57-1-.59-1.07c-.21-.37-.45-.75-.68-1.15l-.83-.8c-.26-.44-.56-.87-.85-1.3L75.26,26c-.15-.22-.29-.44-.46-.66-.63-.85-1.24-1.74-1.94-2.58a51.86,51.86,0,0,0-4.49-4.95l-1.26-1.17c-.2-.2-.42-.39-.64-.57l-.66-.56-.66-.56c-.22-.19-.45-.36-.68-.54l-1.38-1.06a54.85,54.85,0,0,0-5.93-3.74c-.25-.15-.51-.28-.77-.41l-.79-.4-.78-.39L54,8l-1.59-.72-1.62-.65L50,6.32,49.18,6c-.55-.19-1.09-.39-1.64-.57L45.9,5c-.28-.08-.55-.18-.82-.25l-.83-.22A80.26,80.26,0,0,0,31.37,2.18c-1.83,0-5-.24-8.78-.27S14.34,1.85,9.78,2l3.92.31c2.46.11,5.75.17,9.54.22a92.72,92.72,0,0,1,12.65,1c2.24.31,4.51.78,6.77,1.31l1.69.45c.28.08.56.14.84.23l.83.26c.56.18,1.12.33,1.66.52l1.64.58c.54.19,1.07.42,1.6.63l.8.32.78.34L54,8.8l.38.18.37.19.74.38c1,.49,1.91,1,2.83,1.58.23.13.45.27.67.41l.66.43.64.42.32.2.31.23-.61-.22c-.73-.44-1.39-.86-2.06-1.23s-1.33-.73-2-1.09L54.07,9.2l-1.23-.56c-.43-.2-.88-.42-1.36-.62l-1.12-.13.15.08Q38.65,3.25,23,3.24H9.78q-5.23,0-5.23,15.81v95.58a2.19,2.19,0,0,1-.11.59c-.15,8.43-.51,15.77-.76,24.51.12,6.2.14,13.26-.06,23l.15-.09q0,3.39,0,6.84c0,2.3,0,4.66.22,7,.09,1.19.22,2.39.43,3.59a15.15,15.15,0,0,0,1,3.61,5.23,5.23,0,0,0,1.2,1.71,2.83,2.83,0,0,0,1,.58,1.38,1.38,0,0,0,.29.08l.29,0h4.27l.29-.08.28-.09c.17-.06.32-.14.49-.21a4.71,4.71,0,0,0,.9-.57,5.53,5.53,0,0,0,1.35-1.59,7.87,7.87,0,0,0,.75-1.87c.09-.32.15-.64.22-1s.11-.64.13-1,.07-.65.08-1,0-.64,0-1c0-.65,0-1.26,0-1.89V156.82c0-10.39,0-21,0-31.9,0-1.28,0-2.57,0-3.86a.72.72,0,0,1,.34-.55,2.9,2.9,0,0,1,.29-.19l.15-.07.21-.1a14.06,14.06,0,0,1,1.83-.64c1.28-.36,2.61-.64,3.95-.88s2.69-.46,4.05-.66c2.72-.39,5.46-.71,8.22-1l4.15-.41,2.08-.19.66-.06.33,0,.17,0h0v.13a2.1,2.1,0,0,0,.09.61l.05.15c0,.07.09.18.14.27a2.82,2.82,0,0,0,.18.29l.22.27.26.23.28.2a2.19,2.19,0,0,0,.3.16l.16.06.13.06.2,0,.15,0a1.63,1.63,0,0,0,.31,0s0,0,.07,0l0,.07,0,.14.08.27.19.67.5,1.72,1,3.47,2,6.94Q52.07,139,54.24,146t4.5,13.89c1.57,4.63,3.2,9.24,5,13.79.91,2.27,1.87,4.53,3,6.76a33.41,33.41,0,0,0,1.85,3.28,11.65,11.65,0,0,0,1.23,1.58l.41.38.26.2c.1.06.18.12.28.17a2,2,0,0,0,.29.15l.31.11a1.88,1.88,0,0,0,.33.05,1.67,1.67,0,0,0,.32,0h3.7a4.23,4.23,0,0,0,2.28-.53,2.89,2.89,0,0,0,.92-.92,2.93,2.93,0,0,0,.29-.59,2.11,2.11,0,0,0,.1-.3c0-.1,0-.2.07-.29s0-.2,0-.29l0-.31v-.5a.42.42,0,0,0,0-.15l-.29-1-.51-1.74c-.35-1.17-.69-2.33-1-3.49-2.76-9.29-5.5-18.54-8.22-27.69l1.12,1.81c-3.36-10.72-6.91-22.19-10.41-33.49-.44-1.42-.88-2.83-1.31-4.23l-.21-.64,0-.14,0-.07s0,0,0,0l0,0,.22-.2.57-.52c.28-.24.55-.49.81-.74,2.17-2,4.25-4,6.21-6.15A86.16,86.16,0,0,0,76.57,91.05a81.11,81.11,0,0,1-4.93,6.58c1.12-1.51,2.67-3.61,4.3-6.19l.62-1,.61-1,.32-.53.3-.54c.21-.36.42-.72.62-1.1.81-1.49,1.6-3.07,2.34-4.72A53.56,53.56,0,0,0,84.14,72.2c.36-1.75.63-3.48.8-5.13s.22-3.26.23-4.73c.06.39.09.77.13,1.17s0,.49,0,.73l0,.69c0,.44,0,.86-.07,1.24s-.06.73-.09,1.06-.07.62-.1.89-.06.52-.08.74-.07.42-.09.6c0,.35-.09.61-.12.8-.12.75,0,.32.12-.41.07-.36.17-.8.23-1.21s.14-.77.2-1c.1-.44.16-.29,0,1.37l-.18,1.42-.23,1.4c.12-.54.26-1.08.37-1.63s.13-.94.18-1.42l.14-1.42a2,2,0,0,1,.07.51,14.58,14.58,0,0,1-.23,2.27c.11-.63.21-1.26.28-1.89,0-.32.09-.63.12-1l.09-1c.07-.5.12-1,.16-1.44,0-.22,0-.44.08-.65s0-.42,0-.61q.1-1.18.15-2c.07-1.15.12-1.89.19-2.35.13-.91.34-.68.6-.18a10.74,10.74,0,0,0-.39-1.89c-.19-.84-.37-2.57-.93-7.08M23,13.82q23.16,2.59,35.6,12.37l.07.06.1.08c.66.51,1.29,1.05,1.9,1.6a.46.46,0,0,1,.1.26,23.55,23.55,0,0,1,1.74,1.9l.78,1,.72,1,.36.51c.12.17.22.35.34.52l.66,1.07a6.05,6.05,0,0,1,.32.55l.32.57c.1.19.21.38.32.57l.16.29.15.3c.17.26.34.54.51.82s.36.56.52.87l.5.94.25.49c.08.17.15.35.23.52l.47,1.1.12.28c0,.1.07.2.1.3l.21.61c.07.21.14.42.22.63s.14.43.2.66l.37,1.39L70.5,45c.15.41.25.84.37,1.26s.23.86.34,1.29.19.88.28,1.32c.05.22.1.45.14.67s.08.45.11.67c.08.46.15.91.23,1.36s.1.92.16,1.38c.12.93.18,1.87.24,2.82,0,.47,0,1,.06,1.43l0,1.44c0,1,0,2,0,3a54.48,54.48,0,0,1-.33,6,29.41,29.41,0,0,1-1.28,5.91c-.17.48-.35,1-.55,1.42-.1.23-.21.45-.31.68l-.33.77c-.21.47-.4,1-.62,1.44l-.66,1.43A52,52,0,0,1,61.56,90a40.73,40.73,0,0,1-9.76,8.59,42.18,42.18,0,0,1-12.12,5.08,55.83,55.83,0,0,1-13.13,1.59H19a2.36,2.36,0,0,1-.56-.08,1.22,1.22,0,0,1-.73-.57,1.92,1.92,0,0,1-.24-.54,2.81,2.81,0,0,1-.08-.31,1,1,0,0,1,0-.17l0-.12v-1.57l.56.86c-.34-9.42-.54-20.15-.94-29l-.1,3.43c-.31-3.14-.51-11.16-.44-16.11l.15.49c.08,6.78,0-.46.45,2.28l.07,1.18.07-.69-.07-1.17c.08.13.19,0,.22,1.14l0-1.57c.39-3.38.74-3.39,1.18-3-.06-.88-.49,0-.35-3.73l.15.49-.26-4.12.19-1.84a34.1,34.1,0,0,1-.13-3.93l-.3-.46c.11-6.75-.23-15.26,0-22.11-.29-1.5.09-5.18-.15-9l-.32,1.65c-.42,4.13-.2,13.79-.35,20.48L16.84,37a38.92,38.92,0,0,1-.1-4.16l-.3-.45,0,.1V15.08Zm-6.52,33c0,.6-.07,1-.11,1.29V43.79a28.55,28.55,0,0,1,.11,3M74.64,27.48a27.18,27.18,0,0,1,1.53,2.41c.4.66.68,1.24.92,1.71s.35.7.48,1A59.51,59.51,0,0,0,72,24c.07.1.15.19.23.29.92,1.16,1.75,2.23,2.4,3.2" transform="translate(-3.62 0)"></path><path class="cls-5" d="M195,5.55l-.2-.37,0-.09,0-.07-.08-.13c-.1-.18-.2-.35-.31-.52-.21-.35-.43-.69-.68-1a7.75,7.75,0,0,0-.85-1,5.09,5.09,0,0,0-1.13-.86,3.92,3.92,0,0,0-.36-.16l-.39-.13a3.07,3.07,0,0,0-.42-.07H187l-.81,0-.41,0s0,0,0,0l0,0-.05.09-.11.17a6.17,6.17,0,0,0-.42.7l-.2.36c-.07.12-.12.24-.18.36l-.25.56c-.61,1.44-1.12,2.88-1.62,4.33l.07-1,.08-1c-.91,2.64-1.73,5.32-2.52,8S179,19.21,178.2,22c-1.54,5.55-3,11.19-4.48,16.79-2.9,11.2-5.65,22.26-8,32.27l2.11-7.7c-.77,3.58-2.29,9.9-4,16.73-.85,3.41-1.73,7-2.57,10.34-.43,1.68-.84,3.33-1.24,4.91s-.78,3-1.13,4.38l.19-1.36,1-4c.25-1,.41-1.67.49-2,.17-.72,0-.31-.15.38-.1.35-.23.76-.34,1.14l-.17.54s0,.08,0,.11l0,.09c0,.06,0,.1-.06.15s-.11.2-.11,0a1,1,0,0,1,0-.16s0-.06,0-.1a.93.93,0,0,1,0-.14c0-.23.09-.53.17-.93l.6-2.68L160,92.26l-.31,1.34-.15.67-.11.51a1.59,1.59,0,0,1,0-.37.31.31,0,0,1,0-.09,1.15,1.15,0,0,1,0-.16q0-.16.09-.42c.07-.34.17-.8.32-1.43l-.77,3c-.19.54-.34.95-.47,1.27a2.92,2.92,0,0,1-.18.39l-.07.15,0,0v0s0,0,0,0l-.08-.09a2.79,2.79,0,0,1-.35-.73,3.93,3.93,0,0,1-.11-.5,1.25,1.25,0,0,1,.06-.56c0-.15.1-.28.14-.46,0,0-.08.21-.18.21a.14.14,0,0,1-.1,0h0s0,0,0,0-.08-.17-.12-.27-.18-.4-.28-.63c-.41-1-.93-2.35-1.6-4.41l.5,1c-1.12-3-2.16-6-3.17-9-.35-1.38-.69-2.76-1-4.14-.51-1.63-.94-3-1.36-4.32-.09-.34-.19-.67-.3-1s-.19-.68-.29-1c-.16-.72-.31-1.48-.47-2.33l-.51-1c-1.57-7.71-3.51-16.4-5.61-25.08s-4.34-17.37-6.62-25.08c-.33-.82-.72-1.95-1.19-3.32s-1-3-1.69-4.74c-.34-.87-.71-1.79-1.13-2.73A27.32,27.32,0,0,0,131.32,4a11.14,11.14,0,0,0-1-1.46,3.68,3.68,0,0,0-.32-.37L129.8,2l-.19-.18c-.12-.12-.28-.23-.42-.35a4.85,4.85,0,0,0-.57-.35,1.69,1.69,0,0,0-.31-.13,1.7,1.7,0,0,0-.32-.1,2.84,2.84,0,0,0-.66-.09c-.26,0-.35,0-.49,0h-.42l-1.67,0,1.92.15.5,0a2,2,0,0,1,.35,0l.18,0,.17,0a1.61,1.61,0,0,1,.33.12l.32.17a1.79,1.79,0,0,1,.28.2l.26.2a8,8,0,0,1,1.42,1.72,19.64,19.64,0,0,1,1.12,2c.71,1.45,1.37,3.07,2,4.83,1.3,3.51,2.55,7.53,3.77,11.76,2.42,8.46,4.67,17.73,6.35,25.33l-.3-.55c-.79-3.18-1.46-5.45-2.35-9.4l-.54-1,0,.24Q132,2.1,127.31,2.1h-2.55l-4,2.67V6.05q15.6,62.54,23.48,95.87V102l0,.12c.48,2,.93,4,1.37,5.81a1.82,1.82,0,0,1,0,.59c.87,4,1.61,7.81,2.33,11.64s1.42,7.69,2.15,11.88c.33,1.47.65,3,.94,4.61.08.4.14.8.2,1.21s.12.82.16,1.23l0,.28a3,3,0,0,1,0,.31v2c0,3.67,0,7.77-.15,12.52l.15-.08c0,6.8.06,13.86.09,21.12,0,1.81,0,3.64,0,5.48v.84a.44.44,0,0,0,.07.22l.11.2.11.2,0,.1.05.08c.23.42.48.83.75,1.24a9.91,9.91,0,0,0,.92,1.18,4.64,4.64,0,0,0,1.27,1,2.71,2.71,0,0,0,.87.29h4.27a.36.36,0,0,0,.23,0l.41-.22.2-.11.16-.09c.42-.24.84-.5,1.25-.79a7.74,7.74,0,0,0,1.19-1,4.21,4.21,0,0,0,1-1.37,2.61,2.61,0,0,0,.2-.91,2.83,2.83,0,0,0,0-.4v-.36c0-15.27,0-31.26.05-47.72l8.7-34.89,8.86-35.79c2.95-12,5.88-24,8.71-36.06q1.06-4.51,2.08-9c.34-1.5.67-3,1-4.51.16-.75.32-1.51.47-2.27s.3-1.51.42-2.3L195,8l0-.16,0-.18c0-.12,0-.26,0-.36V6.36c0-.29,0-.58-.14-.81M148,69.49l.33,1.86c.1.43.18.79.24,1.07l-.27-1c-.63-3-1.26-6-1.87-8.86.73,3,1.3,5.44,1.57,6.9" transform="translate(-3.62 0)"></path><path class="cls-5" d="M362.15,116c1-4,2.07-9.5,2.69-13.86l.2-1.65.18-1.66c.12-1.1.2-2.2.3-3.3-.17,1.19-.28,1.83-.39,2.32s-.21.82-.34,1.42c-.06.3-.14.66-.22,1.13s-.2,1.07-.32,1.82c-.26,1.51-.62,3.68-1.23,6.89-.49,2.72-1,5.57-1.53,7.83-.23,1.14-.48,2.11-.65,2.87s-.33,1.26-.38,1.46c-.3,1.25.68-1.24,1.69-5.27" transform="translate(-3.62 0)"></path><path class="cls-5" d="M360.74,122.61c-.06.16-.12.33-.2.53s-.07.2-.11.32l-.17.37-.11.94a26.42,26.42,0,0,0,1-3.42c-.17.59-.3.92-.43,1.26" transform="translate(-3.62 0)"></path><path class="cls-5" d="M365,77.21l.07.43,0,.43c.13,1.15.28,2.3.39,3.44a2.26,2.26,0,0,1-.07-.4c0-.28-.1-.65-.15-1-.11-.66-.2-1.17-.12-.46l.21,1.52c0,.51.09,1,.13,1.53l.13,1.54c0,.25.05.51.06.76l0,.77a9.76,9.76,0,0,0,0-2.82c-.06-.69-.11-1.61-.31-2.94l-.31-2.33c-.16-.88-.34-1.9-.55-3l.3,1.71Z" transform="translate(-3.62 0)"></path><path class="cls-5" d="M339.49,154.81a56.72,56.72,0,0,1-7.31,6.17c-.33.25-.65.51-1,.75l-1,.68c-.62.44-1.22.88-1.84,1.27l-1.8,1.17-1.84,1.1a69.8,69.8,0,0,1-9.23,4.48c-.72.3-1.2.5-1.48.63s-.37.17-.3.16a20.64,20.64,0,0,0,2-.68l.87-.32c.3-.11.61-.25.94-.38.64-.27,1.33-.54,2-.84l1.93-.89c.31-.14.6-.29.88-.43l.76-.4a79.84,79.84,0,0,0,10.38-6.78c.43-.31.83-.65,1.24-1l1.23-1c.81-.69,1.6-1.4,2.39-2.1s1.54-1.45,2.29-2.19l1.1-1.14.55-.57.28-.28.26-.29a78.87,78.87,0,0,0,7.54-9.62,74.89,74.89,0,0,0,5.38-9.6c-.31.37-.7,1-1.25,1.89-.27.43-.56.91-.88,1.45-.16.26-.31.54-.49.83l-.55.88c-1.47,2.45-3.42,5.43-5.68,8.45a77.11,77.11,0,0,1-7.46,8.59" transform="translate(-3.62 0)"></path><path class="cls-5" d="M358,129.06c.19-.4.39-.81.57-1.22s.34-.83.51-1.23l.79-2c.43-1.17-.9,1.81-1.55,3.16-.74,1.58-2.5,5.76-.32,1.24" transform="translate(-3.62 0)"></path><path class="cls-5" d="M295.88,1.09l2.29.21,3.16.39c.29,0,.59.08.89.13l.92.15,1.93.32,2,.41c.68.14,1.36.27,2,.45l2,.51.51.13.5.15,1,.3c.66.2,1.31.39,1.93.59l1.82.64a71.28,71.28,0,0,1,7,2.76c-1.23-.61-1.88-1-2.37-1.24s-.85-.47-1.47-.78c-.31-.16-.69-.34-1.19-.57s-1.14-.47-2-.78l-1.38-.51-.39-.14-.42-.13-.9-.28c-.62-.19-1.31-.41-2.07-.63l-2.51-.64-.58-.14L308,2.27l-1.17-.22-1.18-.22-.58-.11-.58-.08-2.26-.3-.54-.07-.54,0-1-.09L298.32,1,296.79.94l-1.74,0c-.75,0-.35.08.83.2" transform="translate(-3.62 0)"></path><path class="cls-5" d="M293.13,1.67l1,0,.5,0h.51l-.47,0h-.39l-.64,0c-.4,0-.81,0-1.51-.05l-1,.25Z" transform="translate(-3.62 0)"></path><path class="cls-5" d="M342.81,21.2l.58.55-.58-.55" transform="translate(-3.62 0)"></path><path class="cls-5" d="M335.25,15c.23.17.5.36.81.6a71.76,71.76,0,0,1,6.75,5.58c-1.72-1.61-3.49-3.18-5.36-4.64a15.41,15.41,0,0,1,1.3.93c.6.48,1.06.84.45.31l-.68-.56-.7-.53-1.4-1.06c-.23-.18-.46-.36-.7-.53l-.73-.49-1.44-1c.41.38.71.65,1.08.94.18.14.38.29.62.45" transform="translate(-3.62 0)"></path><path class="cls-5" d="M376.14,94.54c0-3.65-.06-7.42-.09-11.26q0-2.9,0-5.82c0-.5,0-1,0-1.48V74.56s0-.1-.05-.15l-.11-.29-1.06-2.82-.53-1.4-.55-1.39c-.38-.93-.75-1.86-1.12-2.79s-.79-1.85-1.18-2.78-.78-1.85-1.2-2.76l-.89-2-.42-.95c-.14-.31-.29-.61-.43-.9L367,53.24c-.85-1.75-1.31-2.74-1.06-2.33-.8-1.56-1.78-3.25-2.78-5-.51-.88-1.06-1.77-1.61-2.68-.27-.46-.54-.92-.83-1.37l-.87-1.35c-.59-.91-1.16-1.82-1.79-2.69s-1.2-1.76-1.81-2.6l-1.82-2.44c-.29-.4-.6-.78-.89-1.15l-.88-1.09-.89-1.09-.87-1-1.57-1.76c-1-1.05-1.85-1.92-2.54-2.64-1.44-1.38-2.28-2.15-2.62-2.44-.71-.57.6.74,2.78,3A110,110,0,0,1,354.67,34c1.33,1.77,2.55,3.6,3.68,5.27s2.08,3.21,2.81,4.48c-.2-.27-.49-.71-.85-1.28s-.84-1.22-1.33-2l-.77-1.16c-.27-.4-.56-.8-.84-1.21-.59-.81-1.16-1.66-1.75-2.46s-1.17-1.56-1.7-2.25l-.38-.51-.38-.46-.67-.81c-.8-1-1.25-1.47-1.05-1.14a23.71,23.71,0,0,0,1.79,2.64l2.35,3,2.24,3.13c2.62,4,3.51,5.73,3.68,6a11.9,11.9,0,0,1-1.26-1.85c-.37-.59-.8-1.21-1.16-1.72s-.65-.92-.79-1.09-.12-.12,0,.06Q333,1.88,291.12,1.88H265.5Q229.7,13.22,211,33.74c-.36.35-.44.39-.11,0,.08-.11.2-.25.34-.42a7.78,7.78,0,0,1,.53-.62l1.69-1.85a4.79,4.79,0,0,0,.63-.88c.11-.14.31-.36.74-.8l.83-.84.57-.56.33-.33.38-.34-.48.39-.51.45-1.13,1c-.39.37-.81.73-1.21,1.13l-1.19,1.21-1.17,1.21c-.37.4-.72.81-1.05,1.18l-.9,1c-.28.32-.53.6-.72.86A51,51,0,0,0,205,39.86a75.91,75.91,0,0,0-4.52,6.81c-.19.29-.34.6-.51.9s-.33.6-.49.9c-.32.59-.65,1.17-.95,1.73-.56,1.14-1.08,2.19-1.54,3.09a20.1,20.1,0,0,1-1.56,3.16c-1.42,3.82-2.4,7.21-3.23,10.34s-1.38,6-1.82,8.9l-.33,2.15c-.09.72-.18,1.44-.26,2.16,0,.37-.09.73-.13,1.1s-.09.73-.11,1.1c-.06.74-.12,1.49-.17,2.25l-.09,1.16c0,.39,0,.78,0,1.18q0,1.18-.09,2.43c0,1.66,0,3.36-.05,5.2,0,2.36.08,4.23.16,5.7s.18,2.56.26,3.35a7.31,7.31,0,0,0,.3,2c.1,0,.05-1.75.44.92.24,2.33.55,4.65.94,6.9.09.57.19,1.13.29,1.68l.08.41,0,.21a1.77,1.77,0,0,0,.06.3c.1.28.21.55.31.83l1.14,3c.18.5.39,1,.58,1.45s.39.94.57,1.4c.39.91.73,1.8,1.12,2.62s.73,1.62,1.07,2.37c.17.37.32.73.49,1.08s.33.67.48,1c.53,1.16,1,2.2,1.42,3.07s.73,1.55.94,2c.4.9.32.86-.47-.65A110.09,110.09,0,0,0,215,158.2a86.73,86.73,0,0,0,10.38,10.17,81,81,0,0,0,12,8.24,81.89,81.89,0,0,0,13.33,5.93,90.62,90.62,0,0,0,14.12,3.55,106.14,106.14,0,0,0,14.44,1.4l3.62.07c1.21,0,2.42,0,3.62-.07,2.42-.1,4.82-.26,7.22-.51q2.93-.24,5.79-.65c.95-.14,1.9-.28,2.84-.44l1.42-.24.35-.07.25,0a1.32,1.32,0,0,0,.3-.09l.69-.25c1.78-.64,3.57-1.26,5.32-2l2.62-1,2.6-1.09,1.29-.54,1.29-.57,2.56-1.15,2.55-1.21,1.27-.61c.43-.2.84-.43,1.26-.64l2.53-1.28,2.51-1.35,1.26-.67,1.24-.72c.83-.48,1.67-.94,2.5-1.43-.73.44-1.49.85-2.23,1.27-.17.07.17-.15.71-.49s1.3-.8,1.94-1.25l-.82.5-.82.46-1.63.9c-1.06.62-2.14,1.14-3.18,1.68a106.26,106.26,0,0,0,11.62-7.28l.4-.32.47-.39,1.14-.91,1.37-1.07,1.52-1.27c2.16-1.76,4.6-4,7-6.35l1.74-1.82c.3-.29.57-.61.84-.92l.82-.93c.27-.31.54-.61.8-.92s.51-.62.76-.92l1.43-1.8c.45-.59.86-1.17,1.26-1.72l.58-.81.28-.38c.08-.13.16-.26.25-.39.65-1,1.2-1.89,1.61-2.59l1.19-1.94.55-.9.49-.89.91-1.66c.08-.13.15-.26.22-.39l.19-.39.37-.76c1-1.94,1.67-3.58,2.28-4.94.27-.69.51-1.32.74-1.9.11-.29.22-.56.32-.83s.21-.52.29-.78c.34-1,.65-1.89.95-2.76s.53-1.79.83-2.82c.16-.51.29-1.07.44-1.68s.3-1.27.48-2,.31-1.54.49-2.43c.08-.45.18-.92.26-1.42s.15-1,.23-1.56.17-1.12.26-1.72.13-1.24.2-1.9.15-1.36.2-2.09.1-1.5.15-2.3c0-.42,0-.85,0-1.28s0-.87,0-1.31c0-.87,0-1.76,0-2.64,0-1.79,0-3.58,0-5.4M333.67,29.29c.11.21.58.66-.5,0,0,0-.2-.26-.7-.65l-.93-.71c-.18-.13-.38-.29-.59-.43l-.7-.47-.12-.08c1.21.76,2.38,1.54,3.54,2.33m22.22,25.44a72.77,72.77,0,0,1,4.65,9.54c1.22,3.13,2,5.48,2.44,7.14s.72,2.61.83,3c.05.19.08.23.08.15a4.14,4.14,0,0,0-.08-.62c-.13-.63-.36-1.7-.66-3a66.27,66.27,0,0,0-3.44-10,69.59,69.59,0,0,0-4.89-9c.19.23.45.61.78,1.1l.54.81.3.46c.1.15.19.32.29.49L358,56.93a6.55,6.55,0,0,1,.32.58l.3.6.59,1.18.57,1.15c.18.38.33.75.49,1.1.31.7.58,1.33.81,1.84s.38.9.48,1.12.14.27.11.1a8,8,0,0,0-.22-1c-.12-.41-.3-.94-.6-1.7-.23-.52-.46-1-.7-1.56l-.78-1.52-.78-1.52c-.28-.5-.57-1-.85-1.48-1-1.89-1.83-3.13-2.34-4s-.79-1.26-.87-1.41A7.16,7.16,0,0,1,355.7,52c.7,1,1.5,2.2,1.71,2.53.11.15.11.09-.05-.25a67.66,67.66,0,0,1,9.2,34.43c0,10.23-3.5,30.49-6.3,36.09-11.92,29.11-32.68,45.17-57.63,50l-.23,0c-.5.07-.6,0-.12-.08l3.34-.85a2.67,2.67,0,0,0,.88-.4c.14-.06.4-.16.91-.32l1-.3c.41-.12.9-.29,1.49-.48l-1.11.29-1.3.3-1.41.35c-.48.12-1,.22-1.46.33l-1.44.32-1.36.27c-.86.17-1.61.34-2.17.43s-1.33.13-2.32.25l-1.62.16-.9.09-.46.05-.48,0-2,.14c-.34,0-.69.05-1,.06l-1.05.05c-.7,0-1.4.07-2.1.07l-1.95,0h-.12l0,0-.14-.08h0l-.05,0-.1,0a.64.64,0,0,0-.19-.08l-.36-.14-.36-.12-.35-.11c-.45-.14-.89-.25-1.31-.35l-2.22-.51a11.49,11.49,0,0,1-2.19-.55c-3.6-.48-6.72-.8-9.59-1.07-1.43-.13-2.81-.24-4.15-.33l-2-.11-1,0-.5,0H261l-.1,0-3.43-1.4-3.61-1.56c-2.44-1.1-5.05-2.27-8-3.73l-1.31-.65-1.16-.61-1.95-1c-1.12-.64-2-1.09-2.56-1.42-1.19-.69-1.51-.84-1.52-.79s1.18,1-.9-.15a95.27,95.27,0,0,1-9.68-7,67.82,67.82,0,0,1-6.9-6.51l-1-1.2c-.32-.39-.6-.76-.86-1.09-.51-.67-.92-1.19-1.15-1.56-.47-.74-.4-.71.51.47a68.18,68.18,0,0,1-6.54-10.73,87.55,87.55,0,0,1-4.71-11.73c-1.31-4-2.38-8.14-3.31-12.29l-.66-3.11-.61-3.1a.15.15,0,0,1,0-.06V99.9l0-3.21q0-6.43,0-12.86V79.46a.15.15,0,0,1,0-.09l.48-1.43.51-1.5.25-.76.28-.74,1.1-3a120.65,120.65,0,0,1,11.43-22.52c.23-.36.47-.71.71-1.06s.5-.69.74-1l1.47-2.05,1.53-2c.25-.32.5-.66.76-1l.79-1A88.35,88.35,0,0,1,228.27,34l1.76-1.7c.6-.56,1.22-1.09,1.83-1.63l.91-.81.95-.77c.64-.51,1.27-1,1.92-1.53l2-1.44.5-.36.51-.34,1-.67,1-.68c.34-.22.7-.42,1.06-.63.71-.41,1.43-.84,2.15-1.24-.64.35-1.28.73-1.92,1.1-.15.06.14-.14.6-.44s1.1-.73,1.69-1c-1.94,1-3.79,2.1-5.51,3.2a77.64,77.64,0,0,1,10.28-6l.39-.22.47-.24,1.14-.55,1.36-.65,1.59-.65c.56-.22,1.14-.47,1.76-.69l1.9-.66,1-.34,1-.3,2.08-.62,2.11-.52c.71-.17,1.4-.36,2.1-.48l2-.41.5-.11.5-.08,1-.15,1.83-.3,1.65-.21,1.44-.2.63-.09.56-.06,2-.12.93,0h.88l1.64,0h1l.29.05,2.57.45,1.11.2.51.09.49.11c2.54.54,4.12.86,5.68,1.29l2.48.62,3.18.9c2.51.72,6,1.76,11.17,3.73l2.12.78,2.13.87c.72.3,1.45.59,2.18.91l2.18,1,1.11.5,1.09.54L323,24.47l.56.28.55.3,1.09.61,1.11.61c.37.2.74.4,1.1.63,1.45.88,2.94,1.74,4.36,2.72l1.08.72c.36.24.72.48,1.07.74l2.11,1.54a79.8,79.8,0,0,1,8,6.85c.23.22.45.45.68.66l.33.33.32.34,1.2,1.31c.39.42.76.81,1.09,1.2l.88,1.08c.53.66.94,1.17,1.18,1.49s.29.44.15.29a74.2,74.2,0,0,1,6,8.56m8.57-3.81c-.13-.27-.28-.58-.44-.94l-.59-1.13c.57,1,1.05,1.92,1.49,2.78s.85,1.62,1.2,2.33c.68,1.43,1.22,2.58,1.65,3.53.67,1.57,1.06,2.58,1.35,3.36q-2.58-5.74-5.39-10.93l.06.09c.26.48.48.85.64,1.14.32.57.46.78.45.71a9.64,9.64,0,0,0-.42-.94m-12-3.91a16.09,16.09,0,0,0-1.69-2c0,.12.75,1.12,1.71,2.45l-1.72-2.22c-.55-.65-1-1.25-1.51-1.78-.89-1.1-1.67-1.92-2.28-2.61-1.14-1.33-1.85-2.06-2.36-2.66A75.37,75.37,0,0,1,352.47,47m22.25,33.28V75.9c.11-.25.21-.9.27.47a20.46,20.46,0,0,0-.27,3.92" transform="translate(-3.62 0)"></path><path class="cls-5" d="M222.38,22.65l1.78-1.28,1-.7.51-.36.51-.35,2-1.33.92-.61.83-.51,1.43-.92.72-.47.36-.23.37-.22,3-1.78c2.05-1.13,4.13-2.27,6.28-3.3l1.61-.8,1.63-.74L247,8.31l.81-.37.83-.35,3.31-1.38,3.32-1.29c1.1-.44,2.22-.81,3.32-1.21s2.19-.8,3.29-1.14l3.26-1.09.25-.08a.32.32,0,0,1,.14,0h1.42l1.66,0c4.41,0,8.58-.09,12.39-.22a53.12,53.12,0,0,0-6.71-.33c-1.61,0-3.43,0-5.37,0l-3,0h-.56L264.8,1l-.75.25-1.51.52c-2,.66-4.09,1.46-6.14,2.21-1,.39-2,.81-3,1.2l-1.49.6-1.45.62-2.81,1.2L245,8.78c-1.69.74-3.18,1.5-4.5,2.11-.87.43-1.66.87-2.43,1.3l-2.23,1.23-2.1,1.25c-.7.42-1.41.82-2.09,1.27-1.39.9-2.85,1.8-4.4,2.91s-3.25,2.32-5.17,3.79c-2.72,2.26-1.79,1.6.29,0" transform="translate(-3.62 0)"></path><path class="cls-5" d="M291.12,1.45c1.4-.07-2.26-.13-3.95-.18-2,0-7.05.17-1.41.23,2,0,4.23,0,5.36-.05" transform="translate(-3.62 0)"></path><path class="cls-5" d="M110.47,56.69l.13.74-.23-6.22.17-2.77c-.08-2.22-.17-3.65-.12-5.93l-.27-.69c.09-8.85-.7-17.88-.76-13.56l-.16-.39c0-2.12-.17-3.65-.1-6.27l-.27-.69c0,.05-1.39.09-1.4.14h1.38c0-.15-3.36,0-5.38,0-1.41,0-2.53-.42-3.65.14a1.8,1.8,0,0,0-.8,1.6V69.52c0,.22-.07.34-.11.37-.13,5.33-.46,10-.68,15.5.1,3.92.12,8.39-.07,14.54l.14-.06c.17,21.51.12,46.75,0,73.25,0,1.65,0,3.31,0,5,0,.83,0,1.67,0,2.5v2.57l0,.37c0,.13,0,.25.07.38a3.36,3.36,0,0,0,.27.79,3,3,0,0,0,.46.7,2.83,2.83,0,0,0,.64.5,3.19,3.19,0,0,0,1.4.39h5.18a5.29,5.29,0,0,0,.67-.05c.12,0,.23,0,.35-.06l.36-.11a2.49,2.49,0,0,0,.71-.4,2.84,2.84,0,0,0,1-1.38,4.86,4.86,0,0,0,.23-1.55v-1.27c0-1.69,0-3.38,0-5.08l0-10.17c0-13.58.07-27.16,0-40.45l.51,1.3c-.31-14.21-.49-30.38-.86-43.71l-.09,5.17c-.29-4.73-.47-16.83-.4-24.29L109,65c.07,10.22,0-.69.41,3.44l.07,1.78.06-1-.06-1.78c.07.2.17,0,.2,1.73V66.79c.37-5.1.68-5.11,1.09-4.47-.05-1.34-.45.06-.32-5.63m-1.54-16c0,.93-.06,1.56-.1,2V36.07c.08,2,.14,3.68.1,4.65" transform="translate(-3.62 0)"></path><path class="cls-5" d="M109,2.48,108.64,2a7.59,7.59,0,0,0-.67-.74,5,5,0,0,0-.9-.7A3.76,3.76,0,0,0,105.8.07a2.35,2.35,0,0,0-.37,0l-.2,0h-1.11l-.46,0a6.25,6.25,0,0,0-.87.06h-.09l2.18.26h.3a2.6,2.6,0,0,1,.39.05,3.49,3.49,0,0,1,.77.26,4.27,4.27,0,0,1,1.23.89,8.3,8.3,0,0,1,1,1.17c.15.21.29.42.43.64s.13.22.19.34l.06.09.06.11.12.23.13.22a2.26,2.26,0,0,0,0,.26v.48c0,.26,0,.52,0,.79,0,.53,0,1.08,0,1.64,0,1.12,0,2.28,0,3.47,0,.68.65-1.3.68-2.43,0,1.13.91.95.91-.5A8.46,8.46,0,0,0,109,2.48" transform="translate(-3.62 0)"></path><path class="cls-5" d="M105.09,1.15h-2.45Q99,2.88,99,4.5v9.83a7,7,0,0,0,4.65,1.8,7.1,7.1,0,0,0,5.18-2.32V4.5c-1.26-2.23-2.5-3.35-3.75-3.35" transform="translate(-3.62 0)"></path><path d="M263.17,83.72l0-.24-5.69-.35v30.18H262V84.71c.72-.1,1.12-.43,1.19-1" transform="translate(-3.62 0)"></path><path d="M242.43,101.34V98.48h11.95V94.2H242.43V85.72A59.85,59.85,0,0,0,252.09,83a2.16,2.16,0,0,0,.56,0,1.36,1.36,0,0,0,.81-.23l.24-.17-4.1-3.47-.12.06c-4.48,2-13.37,4-23.77,5.35l-.32,0,.16.29a10.68,10.68,0,0,1,1.16,3.12l0,.21.21,0c3.58-.44,7.39-.94,11-1.61V94.2H224.7v4.28h11.94c-3.41,7.15-8.68,14-13.48,17.63l-.23.17.22.17a15.05,15.05,0,0,1,2.84,3.08l.14.22.2-.17A57.49,57.49,0,0,0,238,104.44v20.69h4.46V106a120.25,120.25,0,0,1,8.79,8.3l.18.19,3-3.69-.16-.14c-1.78-1.62-9.08-7.35-11.81-9.28" transform="translate(-3.62 0)"></path><path d="M272.42,119.41c0,.64,0,.81-.5.94a24.91,24.91,0,0,1-4.56.18c-1.39,0-3,0-4.58-.06l-.39,0,.18.35a17.47,17.47,0,0,1,1.55,4l0,.17h.17c.93,0,1.78,0,2.58,0,4.93,0,7.55-.28,8.88-1.59.82-.81,1.15-2,1.15-4V81.27c.78-.11,1.18-.45,1.25-1.07l0-.24-5.81-.34v39.79Z" transform="translate(-3.62 0)"></path><path d="M265.88,66.94c.78-.15,1.18-.49,1.26-1.06l0-.23-5.88-.35v5.58H243.94V66.93c.76-.15,1.18-.51,1.26-1.05l0-.23-5.88-.35v5.58H224.7v4.27h14.65v4.67h4.59V75.15h17.35v4.67h4.59V75.15H281.1V70.88H265.88Z" transform="translate(-3.62 0)"></path><path d="M334.84,107.49V86.27h10V81.68h-10V68q1.14-.24,1.26-1l0-.23-6-.42V81.68h-12.2V67.25q1.14-.24,1.26-1l0-.23-6-.42V81.67H301.15v-13c.78-.15,1.18-.49,1.26-1l0-.24-6-.41V81.67h-9.68v4.6h9.68v38.86h4.71v-4.92h41.56v-4.6H301.15V86.27h12.07v21.54h4.71v-3.26h12.2v2.94ZM330.13,100h-12.2V86.27h12.2Z" transform="translate(-3.62 0)"></path></g></svg> 